HIERARCHY
ROOT RootJoint
{
    OFFSET   0.000000   0.000000   0.000000
    CHANNELS 6 Xposition Yposition Zposition Xrotation Yrotation Zrotation
    JOINT pelvis_lowerback
    {
        OFFSET   0.000000   0.093605   0.000000
        CHANNELS 3 Xrotation Yrotation Zrotation
        JOINT lowerback_torso
        {
            OFFSET   0.000000   0.100000   0.000000
            CHANNELS 3 Xrotation Yrotation Zrotation
            JOINT torso_head
            {
                OFFSET   0.000000   0.282350   0.000000
                CHANNELS 3 Xrotation Yrotation Zrotation
                End Site
                {
                    OFFSET   0.000000   0.192650   0.000000
                }
            }
            JOINT rTorso_Clavicle
            {
                OFFSET  -0.001000   0.157500   0.000000
                CHANNELS 3 Xrotation Yrotation Zrotation
                JOINT rShoulder
                {
                    OFFSET  -0.117647   0.000000   0.000000
                    CHANNELS 3 Xrotation Yrotation Zrotation
                    JOINT rElbow
                    {
                        OFFSET  -0.245000   0.000000   0.000000
                        CHANNELS 3 Xrotation Yrotation Zrotation
                        JOINT rWrist
                        {
                            OFFSET  -0.240000   0.000000   0.000000
                            CHANNELS 3 Xrotation Yrotation Zrotation
                            End Site
                            {
                                OFFSET  -0.116353  -0.002500   0.000000
                            }
                        }
                    }
                }
            }
            JOINT lTorso_Clavicle
            {
                OFFSET   0.001000   0.157500   0.000000
                CHANNELS 3 Xrotation Yrotation Zrotation
                JOINT lShoulder
                {
                    OFFSET   0.117647   0.000000   0.000000
                    CHANNELS 3 Xrotation Yrotation Zrotation
                    JOINT lElbow
                    {
                        OFFSET   0.245000   0.000000   0.000000
                        CHANNELS 3 Xrotation Yrotation Zrotation
                        JOINT lWrist
                        {
                            OFFSET   0.240000   0.000000   0.000000
                            CHANNELS 3 Xrotation Yrotation Zrotation
                            End Site
                            {
                                OFFSET   0.116353  -0.002500   0.000000
                            }
                        }
                    }
                }
            }
        }
    }
    JOINT rHip
    {
        OFFSET  -0.100000  -0.051395   0.000000
        CHANNELS 3 Xrotation Yrotation Zrotation
        JOINT rKnee
        {
            OFFSET   0.000000  -0.410000   0.000000
            CHANNELS 3 Xrotation Yrotation Zrotation
            JOINT rAnkle
            {
                OFFSET   0.000000  -0.390000   0.000000
                CHANNELS 3 Xrotation Yrotation Zrotation
                JOINT rToeJoint
                {
                    OFFSET   0.000000  -0.050000   0.130000
                    CHANNELS 3 Xrotation Yrotation Zrotation
                    End Site
                    {
                        OFFSET  -0.010000   0.002000   0.060000
                    }
                }
            }
        }
    }
    JOINT lHip
    {
        OFFSET   0.100000  -0.051395   0.000000
        CHANNELS 3 Xrotation Yrotation Zrotation
        JOINT lKnee
        {
            OFFSET   0.000000  -0.410000   0.000000
            CHANNELS 3 Xrotation Yrotation Zrotation
            JOINT lAnkle
            {
                OFFSET   0.000000  -0.390000   0.000000
                CHANNELS 3 Xrotation Yrotation Zrotation
                JOINT lToeJoint
                {
                    OFFSET   0.000000  -0.050000   0.130000
                    CHANNELS 3 Xrotation Yrotation Zrotation
                    End Site
                    {
                        OFFSET   0.010000   0.002000   0.060000
                    }
                }
            }
        }
    }
}
MOTION
Frames: 11
Frame Time:   0.008333
 -2.349299   0.568748   4.228262  -6.556421   0.356958  -5.478111  10.041503  -0.278685   0.140626   3.342368  -0.021793   2.707406   6.016596   0.889737   2.646911   3.295021   0.729366   6.442843   8.078173   9.901810  42.490976   0.000425  48.417538  -0.001220   7.584573   3.928836   5.319898   4.650145   8.279127  -7.678278  -3.905148   8.065609 -35.539440  -0.012523 -73.803494  -0.014584   2.188109  -4.063863   2.766072 -26.373256  -7.921311  -3.414006 108.374376   0.006602  -0.005579 -68.331719  -4.126611   0.694988  -7.640208  -0.001537  -0.001732 -49.634407   6.863526   9.959660 113.423904   0.003609  -0.003405 -58.935970   4.633471   5.486093  -0.452063   0.000015  -0.000301
 -2.348081   0.565074   4.229485  -6.615003   0.493353  -5.340671  10.141784  -0.360618   0.082856   3.439667  -0.070882   2.684047   6.152229   0.812771   2.683314   3.219586   0.650952   6.504000   7.949070   9.764951  42.504390   0.000484  48.288982  -0.001311   7.512219   3.899124   5.248589   4.686548   8.303101  -7.584047  -3.664139   8.000582 -35.508382  -0.011717 -73.534088  -0.014020   2.212022  -4.059844   2.737476 -26.773344  -7.733168  -3.740109 109.813178   0.007364  -0.006483 -67.321297  -4.237529   0.944122  -9.286095  -0.002657  -0.001202 -49.663519   7.017974   9.676866 114.002064   0.003344  -0.003569 -59.411791   4.634598   5.659148  -0.536373   0.000002  -0.000241
 -2.346941   0.561580   4.230748  -6.709144   0.684062  -5.222142  10.260549  -0.458109   0.050842   3.557350  -0.129502   2.670383   6.287168   0.738049   2.716804   3.147192   0.574954   6.557793   7.828029   9.632056  42.507681   0.000506  48.164082  -0.001325   7.444948   3.844969   5.155386   4.720481   8.324251  -7.485256  -3.440713   7.940469 -35.468395  -0.010679 -73.279416  -0.013160   2.237845  -4.044566   2.700377 -27.192129  -7.551495  -4.047542 111.338707   0.008667  -0.007205 -66.291583  -4.336652   1.170033  -9.871438  -0.002797  -0.001181 -49.636848   7.130682   9.390630 114.553059   0.003165  -0.003563 -59.875578   4.613988   5.824366  -0.603722  -0.000004  -0.000193
 -2.345879   0.558304   4.232059  -6.810886   0.913125  -5.118048  10.373205  -0.557117   0.033310   3.676320  -0.191471   2.668022   6.416249   0.668093   2.749407   3.084319   0.497011   6.607715   7.719326   9.502489  42.508725   0.000492  48.044412  -0.001278   7.382000   3.775900   5.059592   4.751909   8.345142  -7.388722  -3.233188   7.885159 -35.426956  -0.009441 -73.041244  -0.011993   2.263193  -4.026186   2.665291 -27.593664  -7.373897  -4.329761 112.824149   0.010098  -0.007663 -65.287872  -4.420223   1.379418  -9.944898  -0.002329  -0.001011 -49.581355   7.214071   9.109563 115.069956   0.003050  -0.003417 -60.322592   4.569984   5.978901  -0.657798  -0.000008  -0.000154
 -2.344882   0.555188   4.233394  -6.903579   1.163873  -5.012210  10.469778  -0.651710   0.016465   3.785256  -0.252201   2.668645   6.536731   0.602916   2.780220   3.030032   0.418530   6.652079   7.621659   9.377995  42.509718   0.000455  47.931743  -0.001186   7.322084   3.702665   4.970705   4.781218   8.367708  -7.291226  -3.040487   7.835015 -35.383852  -0.008095 -72.819617  -0.010636   2.287606  -4.010147   2.637301 -27.962502  -7.193276  -4.599183 114.156754   0.011187  -0.007837 -64.233047  -4.494484   1.561949  -8.677437   0.000164   0.000442 -49.519277   7.288526   8.828298 115.558306   0.002971  -0.003202 -60.752786   4.508652   6.120265  -0.702562  -0.000011  -0.000123
 -2.343963   0.552296   4.234739  -6.988392   1.428858  -4.919341  10.556114  -0.738699   0.010422   3.884364  -0.308142   2.675706   6.648644   0.542288   2.809564   2.980774   0.343691   6.695320   7.531940   9.259980  42.509994   0.000400  47.824901  -0.001066   7.265265   3.624534   4.885018   4.808115   8.390441  -7.200563  -2.861386   7.789499 -35.342330  -0.006785 -72.612384  -0.009243   2.311136  -3.994058   2.618623 -28.306347  -7.023324  -4.840350 115.474573   0.012162  -0.007891 -63.345851  -4.559635   1.746321  -8.656792   0.000161   0.000376 -49.449663   7.345482   8.561606 116.011770   0.002903  -0.002933 -61.164688   4.431449   6.264176  -0.735830  -0.000009  -0.000099
 -2.343104   0.549622   4.236081  -7.064989   1.700150  -4.831948  10.633156  -0.816877   0.008732   3.974151  -0.357874   2.685585   6.752556   0.485900   2.837335   2.934922   0.273989   6.736137   7.448406   9.149849  42.510485   0.000335  47.725030  -0.000928   7.210797   3.547750   4.804240   4.833234   8.413362  -7.115046  -2.694460   7.748055 -35.302790  -0.005569 -72.419092  -0.007898   2.333612  -3.978791   2.606002 -28.633744  -6.861431  -5.064562 116.705041   0.012755  -0.007797 -62.497915  -4.619211   1.915829  -8.418920   0.000507   0.000568 -49.372657   7.392024   8.304599 116.429421   0.002815  -0.002643 -61.555024   4.345439   6.397833  -0.762445  -0.000007  -0.000079
 -2.342368   0.547015   4.237237  -7.116201   1.906453  -4.736105  10.783337  -0.899854  -0.008918   3.953396  -0.340665   2.663524   6.769721   0.415797   2.852656   2.898361   0.222915   6.777165   7.335552   9.000831  42.540296   0.000318  47.608346  -0.000874   7.136803   3.502424   4.758145   4.834871   8.418658  -7.000082  -2.558915   7.738733 -35.223467  -0.004234 -72.172586  -0.006611   2.364134  -3.971143   2.594218 -29.214977  -6.696428  -5.315896 118.167614   0.012733  -0.007899 -61.202988  -4.695236   2.068016  -8.148418   0.000906   0.000501 -49.336500   7.468914   8.077934 116.831411   0.002656  -0.002416 -61.929217   4.278331   6.559335  -0.775555  -0.000002  -0.000063
 -2.341761   0.544583   4.238419  -7.188738   2.114029  -4.655178  10.946168  -0.983057  -0.024464   3.937906  -0.322319   2.643706   6.779991   0.349721   2.863793   2.862472   0.179632   6.819591   7.229226   8.861368  42.567444   0.000301  47.496232  -0.000806   7.065574   3.443142   4.710169   4.830758   8.421868  -6.879727  -2.439340   7.732960 -35.136715  -0.003095 -71.936310  -0.005476   2.392499  -3.925252   2.617534 -29.825554  -6.564693  -5.547876 119.614122   0.012328  -0.007695 -59.932976  -4.741092   2.212192  -7.200037   0.002259   0.000581 -49.262434   7.518593   7.869346 117.209132   0.002467  -0.002163 -62.295854   4.213340   6.713089  -0.781456   0.000001  -0.000051
 -2.341256   0.542330   4.239648  -7.281347   2.323068  -4.577163  11.109912  -1.062673  -0.044451   3.931494  -0.306406   2.624204   6.790771   0.287954   2.872923   2.829341   0.139641   6.860751   7.130445   8.731093  42.593404   0.000284  47.391037  -0.000733   6.997703   3.380800   4.665451   4.824362   8.423957  -6.759945  -2.330913   7.727722 -35.050255  -0.002151 -71.715228  -0.004473   2.419425  -3.871306   2.655112 -30.454815  -6.462767  -5.755956 120.964086   0.011621  -0.007017 -58.739648  -4.761594   2.353368  -6.223238   0.002932   0.000765 -49.146126   7.554084   7.670324 117.558039   0.002266  -0.001899 -62.654673   4.148168   6.856721  -0.782302   0.000001  -0.000040
 -2.340833   0.540252   4.240930  -7.387742   2.541324  -4.499466  11.267756  -1.141356  -0.065728   3.930323  -0.295266   2.604444   6.801943   0.230189   2.880620   2.800016   0.100413   6.898962   7.039753   8.608105  42.617548   0.000270  47.292288  -0.000658   6.932863   3.317893   4.624329   4.816916   8.424714  -6.644747  -2.231355   7.722192 -34.967424  -0.001363 -71.509313  -0.003568   2.445289  -3.819615   2.696231 -31.087026  -6.373812  -5.944725 122.219276   0.010968  -0.006148 -57.626288  -4.777876   2.485956  -5.326743   0.003189   0.000994 -48.994609   7.575447   7.475185 117.878608   0.002073  -0.001631 -63.003579   4.078861   6.987953  -0.779823  -0.000001  -0.000032
